<svg xmlns="http://www.w3.org/2000/svg" viewBox="0 0 1536 864">
  <rect width="100%" height="100%" fill="none"/>
  <defs>
    <linearGradient id="g" x1="0" y1="0" x2="1" y2="1">
      <stop offset="0" stop-color="#ff149d"/>
      <stop offset=".45" stop-color="#7728ff"/>
      <stop offset="1" stop-color="#00d4ff"/>
    </linearGradient>
  </defs>
  <path d="M285 645 C200 565 145 500 145 440 C145 365 205 305 287 305 C330 305 370 322 398 352 L362 385 C343 366 318 354 289 354 C233 354 194 393 194 445 C194 494 235 545 289 600 C343 545 417 477 449 423 L449 505 C410 555 353 606 289 652 Z" fill="url(#g)"/>
  <polyline points="235,525 282,480 327,507 438,410" fill="none" stroke="url(#g)" stroke-width="48" stroke-linejoin="round"/>
  <polygon points="385,388 450,376 441,444" fill="#13ccee"/>
  <rect x="294" y="510" width="31" height="92" rx="8" fill="url(#g)"/>
  <rect x="250" y="535" width="31" height="65" rx="8" fill="url(#g)"/>
  <text x="495" y="553" font-family="Arial, Helvetica, sans-serif" font-size="160" font-weight="800" fill="#030748">Efficia</text>
  <text x="1030" y="553" font-family="Arial, Helvetica, sans-serif" font-size="150" font-weight="300" fill="#2467ff">Digital</text>
</svg>